<mxfile host="Electron" modified="2023-11-05T08:13:39.571Z" agent="Mozilla/5.0 (Windows NT 10.0; Win64; x64) AppleWebKit/537.36 (KHTML, like Gecko) draw.io/21.7.5 Chrome/114.0.5735.289 Electron/25.8.1 Safari/537.36" etag="5kPRQ24Rums4qJmyX--b" version="21.7.5" type="device">
  <diagram id="_5H-L2p9wcAScAushxqT" name="Trang-1">
    <mxGraphModel dx="137" dy="577" grid="1" gridSize="10" guides="1" tooltips="1" connect="1" arrows="1" fold="1" page="1" pageScale="1" pageWidth="850" pageHeight="1100" math="0" shadow="0">
      <root>
        <mxCell id="0" />
        <mxCell id="1" parent="0" />
        <mxCell id="MCsUvH6jt3mRJvjkBpip-1" style="edgeStyle=orthogonalEdgeStyle;rounded=0;orthogonalLoop=1;jettySize=auto;html=1;entryX=0.5;entryY=0;entryDx=0;entryDy=0;" parent="1" source="MCsUvH6jt3mRJvjkBpip-5" target="MCsUvH6jt3mRJvjkBpip-7" edge="1">
          <mxGeometry relative="1" as="geometry" />
        </mxCell>
        <mxCell id="MCsUvH6jt3mRJvjkBpip-2" style="edgeStyle=orthogonalEdgeStyle;rounded=0;orthogonalLoop=1;jettySize=auto;html=1;entryX=0;entryY=0.5;entryDx=0;entryDy=0;" parent="1" source="MCsUvH6jt3mRJvjkBpip-5" target="MCsUvH6jt3mRJvjkBpip-9" edge="1">
          <mxGeometry relative="1" as="geometry">
            <mxPoint x="990" y="902.5" as="targetPoint" />
            <Array as="points">
              <mxPoint x="960" y="672.5" />
              <mxPoint x="960" y="872.5" />
            </Array>
          </mxGeometry>
        </mxCell>
        <mxCell id="MCsUvH6jt3mRJvjkBpip-3" style="edgeStyle=orthogonalEdgeStyle;rounded=0;orthogonalLoop=1;jettySize=auto;html=1;" parent="1" source="MCsUvH6jt3mRJvjkBpip-5" edge="1">
          <mxGeometry relative="1" as="geometry">
            <mxPoint x="1220" y="672.5" as="targetPoint" />
          </mxGeometry>
        </mxCell>
        <mxCell id="MCsUvH6jt3mRJvjkBpip-4" style="edgeStyle=orthogonalEdgeStyle;rounded=0;orthogonalLoop=1;jettySize=auto;html=1;entryX=0.5;entryY=1;entryDx=0;entryDy=0;" parent="1" source="MCsUvH6jt3mRJvjkBpip-5" target="MCsUvH6jt3mRJvjkBpip-12" edge="1">
          <mxGeometry relative="1" as="geometry" />
        </mxCell>
        <mxCell id="MCsUvH6jt3mRJvjkBpip-5" value="Home Page" style="rounded=0;whiteSpace=wrap;html=1;fillColor=#FFFFB3;strokeColor=#36393d;" parent="1" vertex="1">
          <mxGeometry x="1000" y="642.5" width="120" height="60" as="geometry" />
        </mxCell>
        <mxCell id="MCsUvH6jt3mRJvjkBpip-6" value="" style="edgeStyle=orthogonalEdgeStyle;rounded=0;orthogonalLoop=1;jettySize=auto;html=1;" parent="1" source="MCsUvH6jt3mRJvjkBpip-7" target="MCsUvH6jt3mRJvjkBpip-9" edge="1">
          <mxGeometry relative="1" as="geometry" />
        </mxCell>
        <mxCell id="MCsUvH6jt3mRJvjkBpip-7" value="Brand" style="rounded=0;whiteSpace=wrap;html=1;fillColor=#dae8fc;strokeColor=#6c8ebf;" parent="1" vertex="1">
          <mxGeometry x="1000" y="742.5" width="120" height="60" as="geometry" />
        </mxCell>
        <mxCell id="MCsUvH6jt3mRJvjkBpip-8" style="edgeStyle=orthogonalEdgeStyle;rounded=0;orthogonalLoop=1;jettySize=auto;html=1;entryX=0;entryY=0.5;entryDx=0;entryDy=0;" parent="1" source="MCsUvH6jt3mRJvjkBpip-9" target="MCsUvH6jt3mRJvjkBpip-14" edge="1">
          <mxGeometry relative="1" as="geometry">
            <mxPoint x="1210" y="902.5" as="targetPoint" />
          </mxGeometry>
        </mxCell>
        <mxCell id="MCsUvH6jt3mRJvjkBpip-9" value="Product" style="rounded=0;whiteSpace=wrap;html=1;fillColor=#dae8fc;strokeColor=#6c8ebf;" parent="1" vertex="1">
          <mxGeometry x="1000" y="842.5" width="120" height="60" as="geometry" />
        </mxCell>
        <mxCell id="MCsUvH6jt3mRJvjkBpip-10" style="edgeStyle=orthogonalEdgeStyle;rounded=0;orthogonalLoop=1;jettySize=auto;html=1;entryX=0;entryY=0.5;entryDx=0;entryDy=0;" parent="1" source="MCsUvH6jt3mRJvjkBpip-11" target="MCsUvH6jt3mRJvjkBpip-13" edge="1">
          <mxGeometry relative="1" as="geometry">
            <mxPoint x="1420" y="672.5" as="targetPoint" />
            <Array as="points">
              <mxPoint x="1350" y="672.5" />
              <mxPoint x="1350" y="672.5" />
            </Array>
          </mxGeometry>
        </mxCell>
        <mxCell id="MCsUvH6jt3mRJvjkBpip-11" value="" style="rounded=0;whiteSpace=wrap;html=1;" parent="1" vertex="1">
          <mxGeometry x="1220" y="642.5" width="120" height="150" as="geometry" />
        </mxCell>
        <mxCell id="MCsUvH6jt3mRJvjkBpip-12" value="Introduce" style="rounded=0;whiteSpace=wrap;html=1;fillColor=#dae8fc;strokeColor=#6c8ebf;" parent="1" vertex="1">
          <mxGeometry x="1000" y="507.5" width="120" height="60" as="geometry" />
        </mxCell>
        <mxCell id="MCsUvH6jt3mRJvjkBpip-13" value="Post Login" style="rounded=0;whiteSpace=wrap;html=1;" parent="1" vertex="1">
          <mxGeometry x="1480" y="642.5" width="120" height="60" as="geometry" />
        </mxCell>
        <mxCell id="MCsUvH6jt3mRJvjkBpip-14" value="Product Detail" style="rounded=0;whiteSpace=wrap;html=1;fillColor=#dae8fc;strokeColor=#6c8ebf;" parent="1" vertex="1">
          <mxGeometry x="1220" y="842.5" width="120" height="60" as="geometry" />
        </mxCell>
        <mxCell id="MCsUvH6jt3mRJvjkBpip-15" value="" style="endArrow=none;html=1;rounded=0;" parent="1" edge="1">
          <mxGeometry width="50" height="50" relative="1" as="geometry">
            <mxPoint x="960" y="942.5" as="sourcePoint" />
            <mxPoint x="960" y="872.5" as="targetPoint" />
          </mxGeometry>
        </mxCell>
        <mxCell id="MCsUvH6jt3mRJvjkBpip-16" value="" style="endArrow=classic;html=1;rounded=0;entryX=0.5;entryY=1;entryDx=0;entryDy=0;" parent="1" target="MCsUvH6jt3mRJvjkBpip-14" edge="1">
          <mxGeometry width="50" height="50" relative="1" as="geometry">
            <mxPoint x="960" y="942.5" as="sourcePoint" />
            <mxPoint x="1400" y="972.5" as="targetPoint" />
            <Array as="points">
              <mxPoint x="1280" y="942.5" />
            </Array>
          </mxGeometry>
        </mxCell>
        <mxCell id="MCsUvH6jt3mRJvjkBpip-17" value="Forgot password" style="rounded=0;whiteSpace=wrap;html=1;" parent="1" vertex="1">
          <mxGeometry x="1220" y="512.5" width="120" height="60" as="geometry" />
        </mxCell>
        <mxCell id="MCsUvH6jt3mRJvjkBpip-18" value="" style="rounded=0;whiteSpace=wrap;html=1;" parent="1" vertex="1">
          <mxGeometry x="1480" y="360" width="120" height="212.5" as="geometry" />
        </mxCell>
        <mxCell id="MCsUvH6jt3mRJvjkBpip-19" value="Admin profile" style="text;html=1;strokeColor=none;fillColor=none;align=center;verticalAlign=middle;whiteSpace=wrap;rounded=0;" parent="1" vertex="1">
          <mxGeometry x="1495" y="377.5" width="90" height="30" as="geometry" />
        </mxCell>
        <mxCell id="MCsUvH6jt3mRJvjkBpip-22" value="Account" style="rounded=0;whiteSpace=wrap;html=1;" parent="1" vertex="1">
          <mxGeometry x="1495" y="420" width="95" height="40" as="geometry" />
        </mxCell>
        <mxCell id="MCsUvH6jt3mRJvjkBpip-23" value="" style="endArrow=classic;html=1;rounded=0;exitX=0.5;exitY=0;exitDx=0;exitDy=0;entryX=0.5;entryY=1;entryDx=0;entryDy=0;" parent="1" source="MCsUvH6jt3mRJvjkBpip-13" target="MCsUvH6jt3mRJvjkBpip-18" edge="1">
          <mxGeometry width="50" height="50" relative="1" as="geometry">
            <mxPoint x="1460" y="532.5" as="sourcePoint" />
            <mxPoint x="1510" y="482.5" as="targetPoint" />
          </mxGeometry>
        </mxCell>
        <mxCell id="MCsUvH6jt3mRJvjkBpip-24" value="" style="endArrow=classic;html=1;rounded=0;entryX=1;entryY=0.5;entryDx=0;entryDy=0;exitX=0;exitY=0.5;exitDx=0;exitDy=0;" parent="1" source="MCsUvH6jt3mRJvjkBpip-22" target="MCsUvH6jt3mRJvjkBpip-25" edge="1">
          <mxGeometry width="50" height="50" relative="1" as="geometry">
            <mxPoint x="1400" y="422.5" as="sourcePoint" />
            <mxPoint x="1380" y="542.5" as="targetPoint" />
          </mxGeometry>
        </mxCell>
        <mxCell id="jU25uh0QKvTO8C4eT4y0-46" value="Click&lt;br&gt;&amp;nbsp;change&lt;br&gt;&amp;nbsp;password" style="edgeLabel;html=1;align=center;verticalAlign=middle;resizable=0;points=[];" parent="MCsUvH6jt3mRJvjkBpip-24" vertex="1" connectable="0">
          <mxGeometry x="0.1244" relative="1" as="geometry">
            <mxPoint x="-18" as="offset" />
          </mxGeometry>
        </mxCell>
        <mxCell id="MCsUvH6jt3mRJvjkBpip-25" value="Change password" style="rounded=0;whiteSpace=wrap;html=1;" parent="1" vertex="1">
          <mxGeometry x="1220" y="410" width="120" height="60" as="geometry" />
        </mxCell>
        <mxCell id="MCsUvH6jt3mRJvjkBpip-26" value="" style="endArrow=classic;html=1;rounded=0;exitX=0.5;exitY=0;exitDx=0;exitDy=0;entryX=0.5;entryY=1;entryDx=0;entryDy=0;" parent="1" source="MCsUvH6jt3mRJvjkBpip-11" target="MCsUvH6jt3mRJvjkBpip-17" edge="1">
          <mxGeometry width="50" height="50" relative="1" as="geometry">
            <mxPoint x="1240" y="592.5" as="sourcePoint" />
            <mxPoint x="1290" y="542.5" as="targetPoint" />
          </mxGeometry>
        </mxCell>
        <mxCell id="MCsUvH6jt3mRJvjkBpip-27" value="" style="endArrow=classic;html=1;rounded=0;exitX=0.5;exitY=0;exitDx=0;exitDy=0;entryX=0.5;entryY=1;entryDx=0;entryDy=0;" parent="1" source="MCsUvH6jt3mRJvjkBpip-17" target="MCsUvH6jt3mRJvjkBpip-25" edge="1">
          <mxGeometry width="50" height="50" relative="1" as="geometry">
            <mxPoint x="1350" y="532.5" as="sourcePoint" />
            <mxPoint x="1400" y="482.5" as="targetPoint" />
          </mxGeometry>
        </mxCell>
        <mxCell id="MCsUvH6jt3mRJvjkBpip-38" value="Logout" style="rounded=0;whiteSpace=wrap;html=1;" parent="1" vertex="1">
          <mxGeometry x="1495" y="522.5" width="95" height="30" as="geometry" />
        </mxCell>
        <mxCell id="MCsUvH6jt3mRJvjkBpip-39" value="Login" style="rounded=0;whiteSpace=wrap;html=1;" parent="1" vertex="1">
          <mxGeometry x="1230" y="692.5" width="100" height="40" as="geometry" />
        </mxCell>
        <mxCell id="MCsUvH6jt3mRJvjkBpip-40" value="Register" style="rounded=0;whiteSpace=wrap;html=1;fillColor=#dae8fc;strokeColor=#6c8ebf;" parent="1" vertex="1">
          <mxGeometry x="1230" y="742.5" width="100" height="40" as="geometry" />
        </mxCell>
        <mxCell id="MCsUvH6jt3mRJvjkBpip-41" value="Authenticator" style="text;html=1;strokeColor=none;fillColor=none;align=center;verticalAlign=middle;whiteSpace=wrap;rounded=0;" parent="1" vertex="1">
          <mxGeometry x="1250" y="657.5" width="60" height="30" as="geometry" />
        </mxCell>
        <mxCell id="MCsUvH6jt3mRJvjkBpip-46" value="Management" style="rounded=0;whiteSpace=wrap;html=1;" parent="1" vertex="1">
          <mxGeometry x="1495" y="472.5" width="92.5" height="40" as="geometry" />
        </mxCell>
        <mxCell id="MCsUvH6jt3mRJvjkBpip-52" value="Click &quot;giới thiệu&quot; navbar" style="text;html=1;strokeColor=none;fillColor=none;align=center;verticalAlign=middle;whiteSpace=wrap;rounded=0;" parent="1" vertex="1">
          <mxGeometry x="940" y="597.5" width="120" height="30" as="geometry" />
        </mxCell>
        <mxCell id="MCsUvH6jt3mRJvjkBpip-53" value="Click &quot;thương hiệu&quot; navbar" style="text;html=1;strokeColor=none;fillColor=none;align=center;verticalAlign=middle;whiteSpace=wrap;rounded=0;" parent="1" vertex="1">
          <mxGeometry x="1060" y="712.5" width="100" height="30" as="geometry" />
        </mxCell>
        <mxCell id="MCsUvH6jt3mRJvjkBpip-54" value="click brand link" style="text;html=1;strokeColor=none;fillColor=none;align=center;verticalAlign=middle;whiteSpace=wrap;rounded=0;" parent="1" vertex="1">
          <mxGeometry x="1060" y="802.5" width="70" height="30" as="geometry" />
        </mxCell>
        <mxCell id="MCsUvH6jt3mRJvjkBpip-55" value="Click product element" style="text;html=1;strokeColor=none;fillColor=none;align=center;verticalAlign=middle;whiteSpace=wrap;rounded=0;rotation=-90;" parent="1" vertex="1">
          <mxGeometry x="880" y="857.5" width="120" height="30" as="geometry" />
        </mxCell>
        <mxCell id="MCsUvH6jt3mRJvjkBpip-57" value="Click product&#39;s image" style="text;html=1;strokeColor=none;fillColor=none;align=center;verticalAlign=middle;whiteSpace=wrap;rounded=0;" parent="1" vertex="1">
          <mxGeometry x="1070" y="942.5" width="120" height="30" as="geometry" />
        </mxCell>
        <mxCell id="MCsUvH6jt3mRJvjkBpip-59" value="Select a product" style="text;html=1;strokeColor=none;fillColor=none;align=center;verticalAlign=middle;whiteSpace=wrap;rounded=0;" parent="1" vertex="1">
          <mxGeometry x="1120" y="847.5" width="100" height="30" as="geometry" />
        </mxCell>
        <mxCell id="MCsUvH6jt3mRJvjkBpip-60" value="Click &quot;user&quot; icon" style="text;html=1;strokeColor=none;fillColor=none;align=center;verticalAlign=middle;whiteSpace=wrap;rounded=0;" parent="1" vertex="1">
          <mxGeometry x="1120" y="642.5" width="90" height="30" as="geometry" />
        </mxCell>
        <mxCell id="MCsUvH6jt3mRJvjkBpip-65" value="Click &quot;Quên mật khẩu&quot;" style="text;html=1;strokeColor=none;fillColor=none;align=center;verticalAlign=middle;whiteSpace=wrap;rounded=0;" parent="1" vertex="1">
          <mxGeometry x="1160" y="597.5" width="120" height="30" as="geometry" />
        </mxCell>
        <mxCell id="MCsUvH6jt3mRJvjkBpip-67" value="Verified" style="text;html=1;strokeColor=none;fillColor=none;align=center;verticalAlign=middle;whiteSpace=wrap;rounded=0;" parent="1" vertex="1">
          <mxGeometry x="1220" y="482.5" width="60" height="30" as="geometry" />
        </mxCell>
        <mxCell id="MCsUvH6jt3mRJvjkBpip-71" value="Login success" style="text;html=1;strokeColor=none;fillColor=none;align=center;verticalAlign=middle;whiteSpace=wrap;rounded=0;" parent="1" vertex="1">
          <mxGeometry x="1370" y="642.5" width="80" height="30" as="geometry" />
        </mxCell>
        <mxCell id="MCsUvH6jt3mRJvjkBpip-72" value="Click &quot;user&quot; icon" style="text;html=1;strokeColor=none;fillColor=none;align=center;verticalAlign=middle;whiteSpace=wrap;rounded=0;" parent="1" vertex="1">
          <mxGeometry x="1450" y="597.5" width="90" height="30" as="geometry" />
        </mxCell>
        <mxCell id="MCsUvH6jt3mRJvjkBpip-95" value="User List" style="rounded=0;whiteSpace=wrap;html=1;" parent="1" vertex="1">
          <mxGeometry x="1750" y="179" width="120" height="57.5" as="geometry" />
        </mxCell>
        <mxCell id="MCsUvH6jt3mRJvjkBpip-96" value="Add Employee" style="rounded=0;whiteSpace=wrap;html=1;" parent="1" vertex="1">
          <mxGeometry x="2020" y="141.5" width="120" height="60" as="geometry" />
        </mxCell>
        <mxCell id="MCsUvH6jt3mRJvjkBpip-97" value="Update user" style="rounded=0;whiteSpace=wrap;html=1;" parent="1" vertex="1">
          <mxGeometry x="1970" y="236.5" width="120" height="60" as="geometry" />
        </mxCell>
        <mxCell id="MCsUvH6jt3mRJvjkBpip-99" value="" style="endArrow=classic;html=1;rounded=0;exitX=0.5;exitY=1;exitDx=0;exitDy=0;" parent="1" source="MCsUvH6jt3mRJvjkBpip-95" edge="1">
          <mxGeometry width="50" height="50" relative="1" as="geometry">
            <mxPoint x="1960" y="582.75" as="sourcePoint" />
            <mxPoint x="1970" y="269" as="targetPoint" />
            <Array as="points">
              <mxPoint x="1810" y="269" />
            </Array>
          </mxGeometry>
        </mxCell>
        <mxCell id="jU25uh0QKvTO8C4eT4y0-15" value="click &quot;update&quot;&lt;br&gt;button" style="edgeLabel;html=1;align=center;verticalAlign=middle;resizable=0;points=[];" parent="MCsUvH6jt3mRJvjkBpip-99" vertex="1" connectable="0">
          <mxGeometry x="0.2758" y="1" relative="1" as="geometry">
            <mxPoint as="offset" />
          </mxGeometry>
        </mxCell>
        <mxCell id="MCsUvH6jt3mRJvjkBpip-102" value="" style="endArrow=classic;html=1;rounded=0;exitX=1;exitY=0.5;exitDx=0;exitDy=0;entryX=0;entryY=0.5;entryDx=0;entryDy=0;" parent="1" source="MCsUvH6jt3mRJvjkBpip-46" target="MCsUvH6jt3mRJvjkBpip-95" edge="1">
          <mxGeometry width="50" height="50" relative="1" as="geometry">
            <mxPoint x="1740" y="562.5" as="sourcePoint" />
            <mxPoint x="1750" y="270" as="targetPoint" />
            <Array as="points">
              <mxPoint x="1710" y="493" />
              <mxPoint x="1710" y="208" />
            </Array>
          </mxGeometry>
        </mxCell>
        <mxCell id="jU25uh0QKvTO8C4eT4y0-9" value="Click &quot;Quản lí người dùng&quot;&lt;br&gt;button" style="edgeLabel;html=1;align=center;verticalAlign=middle;resizable=0;points=[];" parent="MCsUvH6jt3mRJvjkBpip-102" vertex="1" connectable="0">
          <mxGeometry x="0.3126" y="1" relative="1" as="geometry">
            <mxPoint x="1" y="8" as="offset" />
          </mxGeometry>
        </mxCell>
        <mxCell id="MCsUvH6jt3mRJvjkBpip-112" value="Product list" style="rounded=0;whiteSpace=wrap;html=1;" parent="1" vertex="1">
          <mxGeometry x="1900" y="482.5" width="120" height="57.5" as="geometry" />
        </mxCell>
        <mxCell id="PcDf4wcU7JuT8pMQt7nV-8" value="Click &quot;Thêm sản phẩm&quot; button" style="edgeStyle=orthogonalEdgeStyle;rounded=0;orthogonalLoop=1;jettySize=auto;html=1;" parent="1" source="MCsUvH6jt3mRJvjkBpip-113" target="PcDf4wcU7JuT8pMQt7nV-7" edge="1">
          <mxGeometry x="-0.3601" relative="1" as="geometry">
            <Array as="points">
              <mxPoint x="2410" y="490" />
            </Array>
            <mxPoint as="offset" />
          </mxGeometry>
        </mxCell>
        <mxCell id="PcDf4wcU7JuT8pMQt7nV-11" value="Click &quot;Update&quot; button" style="edgeStyle=orthogonalEdgeStyle;rounded=0;orthogonalLoop=1;jettySize=auto;html=1;" parent="1" source="MCsUvH6jt3mRJvjkBpip-113" target="PcDf4wcU7JuT8pMQt7nV-10" edge="1">
          <mxGeometry relative="1" as="geometry" />
        </mxCell>
        <mxCell id="MCsUvH6jt3mRJvjkBpip-113" value="Product List" style="rounded=0;whiteSpace=wrap;html=1;" parent="1" vertex="1">
          <mxGeometry x="2170" y="480" width="120" height="60" as="geometry" />
        </mxCell>
        <mxCell id="MCsUvH6jt3mRJvjkBpip-114" value="&lt;span style=&quot;font-size: 11px; background-color: rgb(255, 255, 255);&quot;&gt;Update product&#39;s quantity&lt;/span&gt;" style="rounded=0;whiteSpace=wrap;html=1;" parent="1" vertex="1">
          <mxGeometry x="2170" y="550" width="120" height="60" as="geometry" />
        </mxCell>
        <mxCell id="MCsUvH6jt3mRJvjkBpip-115" value="" style="endArrow=classic;html=1;exitX=1;exitY=0.5;exitDx=0;exitDy=0;" parent="1" source="MCsUvH6jt3mRJvjkBpip-112" edge="1">
          <mxGeometry width="50" height="50" relative="1" as="geometry">
            <mxPoint x="1960" y="815" as="sourcePoint" />
            <mxPoint x="2170" y="510" as="targetPoint" />
          </mxGeometry>
        </mxCell>
        <mxCell id="jU25uh0QKvTO8C4eT4y0-29" value="Click &quot;Danh sách sản phẩm&quot;" style="edgeLabel;html=1;align=center;verticalAlign=middle;resizable=0;points=[];" parent="MCsUvH6jt3mRJvjkBpip-115" vertex="1" connectable="0">
          <mxGeometry x="-0.1253" y="-4" relative="1" as="geometry">
            <mxPoint x="4" y="-3" as="offset" />
          </mxGeometry>
        </mxCell>
        <mxCell id="MCsUvH6jt3mRJvjkBpip-116" value="" style="endArrow=classic;html=1;rounded=0;exitX=0.5;exitY=1;exitDx=0;exitDy=0;entryX=0;entryY=0.5;entryDx=0;entryDy=0;" parent="1" source="MCsUvH6jt3mRJvjkBpip-112" target="MCsUvH6jt3mRJvjkBpip-114" edge="1">
          <mxGeometry width="50" height="50" relative="1" as="geometry">
            <mxPoint x="1960" y="815" as="sourcePoint" />
            <mxPoint x="2010" y="765" as="targetPoint" />
            <Array as="points">
              <mxPoint x="1960" y="580" />
            </Array>
          </mxGeometry>
        </mxCell>
        <mxCell id="jU25uh0QKvTO8C4eT4y0-30" value="Click &quot;Thêm số lượng sản phẩm&quot;" style="edgeLabel;html=1;align=center;verticalAlign=middle;resizable=0;points=[];" parent="MCsUvH6jt3mRJvjkBpip-116" vertex="1" connectable="0">
          <mxGeometry x="0.1969" relative="1" as="geometry">
            <mxPoint as="offset" />
          </mxGeometry>
        </mxCell>
        <mxCell id="MCsUvH6jt3mRJvjkBpip-119" value="" style="endArrow=classic;html=1;rounded=0;entryX=-0.018;entryY=0.452;entryDx=0;entryDy=0;entryPerimeter=0;" parent="1" target="MCsUvH6jt3mRJvjkBpip-112" edge="1">
          <mxGeometry width="50" height="50" relative="1" as="geometry">
            <mxPoint x="1590" y="493" as="sourcePoint" />
            <mxPoint x="1750" y="592.5" as="targetPoint" />
            <Array as="points">
              <mxPoint x="1730" y="493" />
              <mxPoint x="1730" y="508" />
            </Array>
          </mxGeometry>
        </mxCell>
        <mxCell id="jU25uh0QKvTO8C4eT4y0-28" value="Select&lt;br&gt;&amp;nbsp;product &lt;br&gt;management" style="edgeLabel;html=1;align=center;verticalAlign=middle;resizable=0;points=[];" parent="MCsUvH6jt3mRJvjkBpip-119" vertex="1" connectable="0">
          <mxGeometry x="0.4018" y="-2" relative="1" as="geometry">
            <mxPoint x="33" y="-2" as="offset" />
          </mxGeometry>
        </mxCell>
        <mxCell id="MCsUvH6jt3mRJvjkBpip-127" value="" style="endArrow=classic;html=1;rounded=0;entryX=0;entryY=0.552;entryDx=0;entryDy=0;entryPerimeter=0;" parent="1" target="zVcBrxB4Ki9ZOMjHsh-O-27" edge="1">
          <mxGeometry width="50" height="50" relative="1" as="geometry">
            <mxPoint x="1590" y="493" as="sourcePoint" />
            <mxPoint x="1729.9999999999998" y="1060" as="targetPoint" />
            <Array as="points">
              <mxPoint x="1630" y="493" />
              <mxPoint x="1630" y="1100" />
            </Array>
          </mxGeometry>
        </mxCell>
        <mxCell id="jU25uh0QKvTO8C4eT4y0-43" value="Click &quot;Thống kê&quot; button" style="edgeLabel;html=1;align=center;verticalAlign=middle;resizable=0;points=[];" parent="MCsUvH6jt3mRJvjkBpip-127" vertex="1" connectable="0">
          <mxGeometry x="0.2278" y="1" relative="1" as="geometry">
            <mxPoint x="89" y="127" as="offset" />
          </mxGeometry>
        </mxCell>
        <mxCell id="MCsUvH6jt3mRJvjkBpip-146" value="" style="rounded=0;whiteSpace=wrap;html=1;dashed=1;" parent="1" vertex="1">
          <mxGeometry x="2450" y="760" width="140" height="320" as="geometry" />
        </mxCell>
        <mxCell id="MCsUvH6jt3mRJvjkBpip-147" value="Guest" style="rounded=0;whiteSpace=wrap;html=1;dashed=1;strokeWidth=0;fillColor=#dae8fc;strokeColor=#6c8ebf;" parent="1" vertex="1">
          <mxGeometry x="2481.5" y="955" width="77" height="45" as="geometry" />
        </mxCell>
        <mxCell id="MCsUvH6jt3mRJvjkBpip-148" value="Admin" style="rounded=0;whiteSpace=wrap;html=1;dashed=1;strokeWidth=0;" parent="1" vertex="1">
          <mxGeometry x="2480" y="1017.5" width="77" height="35" as="geometry" />
        </mxCell>
        <mxCell id="MCsUvH6jt3mRJvjkBpip-149" value="Flat page" style="rounded=0;whiteSpace=wrap;html=1;strokeWidth=1;perimeterSpacing=1;" parent="1" vertex="1">
          <mxGeometry x="2480" y="838.75" width="80" height="40" as="geometry" />
        </mxCell>
        <mxCell id="MCsUvH6jt3mRJvjkBpip-150" value="Start page" style="rounded=0;whiteSpace=wrap;html=1;dashed=1;strokeWidth=0;fillColor=#FFFFB3;strokeColor=#FFFFB3;" parent="1" vertex="1">
          <mxGeometry x="2480" y="782.5" width="77" height="45" as="geometry" />
        </mxCell>
        <mxCell id="jU25uh0QKvTO8C4eT4y0-1" value="" style="endArrow=classic;html=1;rounded=0;exitX=1;exitY=0.5;exitDx=0;exitDy=0;fillColor=#f8cecc;strokeColor=#000000;entryX=-0.004;entryY=0.551;entryDx=0;entryDy=0;entryPerimeter=0;" parent="1" source="zVcBrxB4Ki9ZOMjHsh-O-14" target="jU25uh0QKvTO8C4eT4y0-3" edge="1">
          <mxGeometry width="50" height="50" relative="1" as="geometry">
            <mxPoint x="1950.0000000000002" y="857.4999999999998" as="sourcePoint" />
            <mxPoint x="2050" y="900" as="targetPoint" />
          </mxGeometry>
        </mxCell>
        <mxCell id="jU25uh0QKvTO8C4eT4y0-2" value="Click &quot;Hoạt động admin&quot;" style="edgeLabel;html=1;align=center;verticalAlign=middle;resizable=0;points=[];" parent="jU25uh0QKvTO8C4eT4y0-1" vertex="1" connectable="0">
          <mxGeometry x="0.0371" y="-5" relative="1" as="geometry">
            <mxPoint y="-5" as="offset" />
          </mxGeometry>
        </mxCell>
        <mxCell id="jU25uh0QKvTO8C4eT4y0-3" value="Product change log" style="rounded=0;whiteSpace=wrap;html=1;fillColor=#FFFFFF;strokeColor=#000000;" parent="1" vertex="1">
          <mxGeometry x="2125" y="824" width="140" height="36" as="geometry" />
        </mxCell>
        <mxCell id="jU25uh0QKvTO8C4eT4y0-11" value="" style="endArrow=classic;html=1;rounded=0;exitX=1;exitY=0.5;exitDx=0;exitDy=0;entryX=0;entryY=0.5;entryDx=0;entryDy=0;" parent="1" source="MCsUvH6jt3mRJvjkBpip-95" target="MCsUvH6jt3mRJvjkBpip-96" edge="1">
          <mxGeometry width="50" height="50" relative="1" as="geometry">
            <mxPoint x="1900" y="209" as="sourcePoint" />
            <mxPoint x="1970" y="159" as="targetPoint" />
            <Array as="points">
              <mxPoint x="1920" y="208" />
              <mxPoint x="1920" y="172" />
            </Array>
          </mxGeometry>
        </mxCell>
        <mxCell id="jU25uh0QKvTO8C4eT4y0-14" value="Click &quot;Add employee&quot;&lt;br&gt;button" style="edgeLabel;html=1;align=center;verticalAlign=middle;resizable=0;points=[];" parent="jU25uh0QKvTO8C4eT4y0-11" vertex="1" connectable="0">
          <mxGeometry x="0.0661" y="-1" relative="1" as="geometry">
            <mxPoint x="-1" as="offset" />
          </mxGeometry>
        </mxCell>
        <mxCell id="jU25uh0QKvTO8C4eT4y0-32" value="" style="rounded=0;whiteSpace=wrap;html=1;fillColor=#FFFFFF;strokeColor=#000000;" parent="1" vertex="1">
          <mxGeometry x="1830" y="630" width="140" height="142.5" as="geometry" />
        </mxCell>
        <mxCell id="jU25uh0QKvTO8C4eT4y0-33" value="Incoming order request" style="rounded=0;whiteSpace=wrap;html=1;" parent="1" vertex="1">
          <mxGeometry x="1850" y="660" width="110" height="42.5" as="geometry" />
        </mxCell>
        <mxCell id="jU25uh0QKvTO8C4eT4y0-34" value="Order list" style="rounded=0;whiteSpace=wrap;html=1;" parent="1" vertex="1">
          <mxGeometry x="1850" y="712.5" width="110" height="42.5" as="geometry" />
        </mxCell>
        <mxCell id="jU25uh0QKvTO8C4eT4y0-35" value="Order" style="text;strokeColor=none;fillColor=none;align=left;verticalAlign=middle;spacingLeft=4;spacingRight=4;overflow=hidden;points=[[0,0.5],[1,0.5]];portConstraint=eastwest;rotatable=0;whiteSpace=wrap;html=1;" parent="1" vertex="1">
          <mxGeometry x="1880" y="630" width="50" height="30" as="geometry" />
        </mxCell>
        <mxCell id="jU25uh0QKvTO8C4eT4y0-36" value="Order detail" style="rounded=0;whiteSpace=wrap;html=1;fillColor=#FFFFFF;strokeColor=#000000;" parent="1" vertex="1">
          <mxGeometry x="2090" y="682.5" width="120" height="60" as="geometry" />
        </mxCell>
        <mxCell id="jU25uh0QKvTO8C4eT4y0-37" value="" style="endArrow=classic;html=1;exitX=1;exitY=0.57;exitDx=0;exitDy=0;entryX=-0.001;entryY=0.471;entryDx=0;entryDy=0;exitPerimeter=0;fillColor=#f8cecc;strokeColor=#000000;entryPerimeter=0;" parent="1" source="jU25uh0QKvTO8C4eT4y0-32" target="jU25uh0QKvTO8C4eT4y0-36" edge="1">
          <mxGeometry width="50" height="50" relative="1" as="geometry">
            <mxPoint x="2025" y="681.75" as="sourcePoint" />
            <mxPoint x="2175" y="680.75" as="targetPoint" />
          </mxGeometry>
        </mxCell>
        <mxCell id="jU25uh0QKvTO8C4eT4y0-38" value="Click&lt;br&gt;&amp;nbsp;&quot;Detail&quot;&lt;br&gt;button" style="edgeLabel;html=1;align=center;verticalAlign=middle;resizable=0;points=[];" parent="jU25uh0QKvTO8C4eT4y0-37" vertex="1" connectable="0">
          <mxGeometry x="-0.1253" y="-4" relative="1" as="geometry">
            <mxPoint x="11" y="-1" as="offset" />
          </mxGeometry>
        </mxCell>
        <mxCell id="jU25uh0QKvTO8C4eT4y0-39" value="" style="endArrow=classic;html=1;rounded=0;exitX=1.001;exitY=0.608;exitDx=0;exitDy=0;exitPerimeter=0;fillColor=#f8cecc;strokeColor=#000000;" parent="1" edge="1">
          <mxGeometry width="50" height="50" relative="1" as="geometry">
            <mxPoint x="1587.5925" y="492.81999999999994" as="sourcePoint" />
            <mxPoint x="1830" y="700" as="targetPoint" />
            <Array as="points">
              <mxPoint x="1690" y="493" />
              <mxPoint x="1690" y="700" />
            </Array>
          </mxGeometry>
        </mxCell>
        <mxCell id="jU25uh0QKvTO8C4eT4y0-42" value="Click&lt;br style=&quot;border-color: var(--border-color);&quot;&gt;&amp;nbsp;&quot;Quản lý đơn hàng&quot;&lt;br&gt;button" style="edgeLabel;html=1;align=center;verticalAlign=middle;resizable=0;points=[];" parent="jU25uh0QKvTO8C4eT4y0-39" vertex="1" connectable="0">
          <mxGeometry x="0.5732" relative="1" as="geometry">
            <mxPoint x="16" y="1" as="offset" />
          </mxGeometry>
        </mxCell>
        <mxCell id="jU25uh0QKvTO8C4eT4y0-44" value="" style="endArrow=classic;html=1;rounded=0;entryX=0;entryY=0.556;entryDx=0;entryDy=0;entryPerimeter=0;exitX=1;exitY=0.5;exitDx=0;exitDy=0;fillColor=#f8cecc;strokeColor=#000000;" parent="1" source="MCsUvH6jt3mRJvjkBpip-46" target="MCsUvH6jt3mRJvjkBpip-135" edge="1">
          <mxGeometry width="50" height="50" relative="1" as="geometry">
            <mxPoint x="1730" y="897.5" as="sourcePoint" />
            <mxPoint x="1780" y="847.5" as="targetPoint" />
            <Array as="points">
              <mxPoint x="1660" y="493" />
              <mxPoint x="1660" y="907" />
            </Array>
          </mxGeometry>
        </mxCell>
        <mxCell id="jU25uh0QKvTO8C4eT4y0-45" value="click &quot;Hoạt động &lt;br&gt;nhân viên&quot; button" style="edgeLabel;html=1;align=center;verticalAlign=middle;resizable=0;points=[];" parent="jU25uh0QKvTO8C4eT4y0-44" vertex="1" connectable="0">
          <mxGeometry x="0.6863" y="3" relative="1" as="geometry">
            <mxPoint as="offset" />
          </mxGeometry>
        </mxCell>
        <mxCell id="jU25uh0QKvTO8C4eT4y0-47" value="Change&lt;br&gt;account&lt;br&gt;&amp;nbsp;Info" style="rounded=0;whiteSpace=wrap;html=1;fillColor=#ffffff;strokeColor=#000000;" parent="1" vertex="1">
          <mxGeometry x="1215" y="230" width="120" height="60" as="geometry" />
        </mxCell>
        <mxCell id="jU25uh0QKvTO8C4eT4y0-48" value="" style="endArrow=classic;html=1;rounded=0;entryX=0.5;entryY=1;entryDx=0;entryDy=0;exitX=0;exitY=0.5;exitDx=0;exitDy=0;fillColor=#f8cecc;strokeColor=#000000;" parent="1" source="MCsUvH6jt3mRJvjkBpip-22" target="jU25uh0QKvTO8C4eT4y0-47" edge="1">
          <mxGeometry width="50" height="50" relative="1" as="geometry">
            <mxPoint x="1470" y="320" as="sourcePoint" />
            <mxPoint x="1315" y="320" as="targetPoint" />
            <Array as="points">
              <mxPoint x="1450" y="440" />
              <mxPoint x="1450" y="320" />
              <mxPoint x="1275" y="320" />
            </Array>
          </mxGeometry>
        </mxCell>
        <mxCell id="jU25uh0QKvTO8C4eT4y0-49" value="Click&lt;br&gt;&amp;nbsp;account info" style="edgeLabel;html=1;align=center;verticalAlign=middle;resizable=0;points=[];" parent="jU25uh0QKvTO8C4eT4y0-48" vertex="1" connectable="0">
          <mxGeometry x="0.1244" relative="1" as="geometry">
            <mxPoint x="-37" y="3" as="offset" />
          </mxGeometry>
        </mxCell>
        <mxCell id="PcDf4wcU7JuT8pMQt7nV-7" value="Add Selling Product" style="whiteSpace=wrap;html=1;rounded=0;" parent="1" vertex="1">
          <mxGeometry x="2470" y="400" width="120" height="60" as="geometry" />
        </mxCell>
        <mxCell id="PcDf4wcU7JuT8pMQt7nV-10" value="Update Product" style="whiteSpace=wrap;html=1;rounded=0;" parent="1" vertex="1">
          <mxGeometry x="2470" y="480" width="120" height="60" as="geometry" />
        </mxCell>
        <mxCell id="zVcBrxB4Ki9ZOMjHsh-O-1" value="View user detail" style="rounded=0;whiteSpace=wrap;html=1;" parent="1" vertex="1">
          <mxGeometry x="1970" y="316.5" width="120" height="60" as="geometry" />
        </mxCell>
        <mxCell id="zVcBrxB4Ki9ZOMjHsh-O-2" value="" style="endArrow=classic;html=1;rounded=0;exitX=0.5;exitY=1;exitDx=0;exitDy=0;entryX=0;entryY=0.5;entryDx=0;entryDy=0;" parent="1" source="MCsUvH6jt3mRJvjkBpip-95" target="zVcBrxB4Ki9ZOMjHsh-O-1" edge="1">
          <mxGeometry width="50" height="50" relative="1" as="geometry">
            <mxPoint x="1790" y="317" as="sourcePoint" />
            <mxPoint x="1950" y="349" as="targetPoint" />
            <Array as="points">
              <mxPoint x="1810" y="347" />
            </Array>
          </mxGeometry>
        </mxCell>
        <mxCell id="zVcBrxB4Ki9ZOMjHsh-O-3" value="click &quot;Detail&quot;&lt;br&gt;&amp;nbsp;button" style="edgeLabel;html=1;align=center;verticalAlign=middle;resizable=0;points=[];" parent="zVcBrxB4Ki9ZOMjHsh-O-2" vertex="1" connectable="0">
          <mxGeometry x="0.2758" y="1" relative="1" as="geometry">
            <mxPoint x="8" y="1" as="offset" />
          </mxGeometry>
        </mxCell>
        <mxCell id="zVcBrxB4Ki9ZOMjHsh-O-4" value="Brand List" style="rounded=0;whiteSpace=wrap;html=1;" parent="1" vertex="1">
          <mxGeometry x="1920" y="392.5" width="120" height="57.5" as="geometry" />
        </mxCell>
        <mxCell id="zVcBrxB4Ki9ZOMjHsh-O-5" value="" style="endArrow=classic;html=1;rounded=0;exitX=1;exitY=0.5;exitDx=0;exitDy=0;entryX=0;entryY=0.5;entryDx=0;entryDy=0;" parent="1" source="MCsUvH6jt3mRJvjkBpip-46" target="zVcBrxB4Ki9ZOMjHsh-O-4" edge="1">
          <mxGeometry width="50" height="50" relative="1" as="geometry">
            <mxPoint x="1598" y="503" as="sourcePoint" />
            <mxPoint x="1760" y="218" as="targetPoint" />
            <Array as="points">
              <mxPoint x="1720" y="493" />
              <mxPoint x="1720" y="420" />
            </Array>
          </mxGeometry>
        </mxCell>
        <mxCell id="zVcBrxB4Ki9ZOMjHsh-O-6" value="Click &quot;Quản lí thương hiệu&quot;&lt;br&gt;button" style="edgeLabel;html=1;align=center;verticalAlign=middle;resizable=0;points=[];" parent="zVcBrxB4Ki9ZOMjHsh-O-5" vertex="1" connectable="0">
          <mxGeometry x="0.3126" y="1" relative="1" as="geometry">
            <mxPoint x="35" y="4" as="offset" />
          </mxGeometry>
        </mxCell>
        <mxCell id="zVcBrxB4Ki9ZOMjHsh-O-7" value="Update brand" style="rounded=0;whiteSpace=wrap;html=1;" parent="1" vertex="1">
          <mxGeometry x="2160" y="390" width="120" height="60" as="geometry" />
        </mxCell>
        <mxCell id="zVcBrxB4Ki9ZOMjHsh-O-8" value="" style="endArrow=classic;html=1;rounded=0;exitX=1;exitY=0.5;exitDx=0;exitDy=0;entryX=0;entryY=0.5;entryDx=0;entryDy=0;" parent="1" source="zVcBrxB4Ki9ZOMjHsh-O-4" target="zVcBrxB4Ki9ZOMjHsh-O-7" edge="1">
          <mxGeometry width="50" height="50" relative="1" as="geometry">
            <mxPoint x="1598" y="503" as="sourcePoint" />
            <mxPoint x="1930" y="431" as="targetPoint" />
            <Array as="points" />
          </mxGeometry>
        </mxCell>
        <mxCell id="zVcBrxB4Ki9ZOMjHsh-O-9" value="Click &quot;Update&quot;&lt;br&gt;button" style="edgeLabel;html=1;align=center;verticalAlign=middle;resizable=0;points=[];" parent="zVcBrxB4Ki9ZOMjHsh-O-8" vertex="1" connectable="0">
          <mxGeometry x="0.3126" y="1" relative="1" as="geometry">
            <mxPoint x="-19" y="4" as="offset" />
          </mxGeometry>
        </mxCell>
        <mxCell id="zVcBrxB4Ki9ZOMjHsh-O-12" value="" style="group;fillColor=#f8cecc;strokeColor=#b85450;" parent="1" vertex="1" connectable="0">
          <mxGeometry x="1830" y="790" width="140" height="210" as="geometry" />
        </mxCell>
        <mxCell id="MCsUvH6jt3mRJvjkBpip-135" value="" style="rounded=0;whiteSpace=wrap;html=1;fillColor=#e1d5e7;strokeColor=#9673a6;" parent="zVcBrxB4Ki9ZOMjHsh-O-12" vertex="1">
          <mxGeometry width="140" height="210" as="geometry" />
        </mxCell>
        <mxCell id="zVcBrxB4Ki9ZOMjHsh-O-13" value="Activity Log" style="text;html=1;strokeColor=none;fillColor=none;align=center;verticalAlign=middle;whiteSpace=wrap;rounded=0;" parent="zVcBrxB4Ki9ZOMjHsh-O-12" vertex="1">
          <mxGeometry x="35" y="4" width="70" height="30" as="geometry" />
        </mxCell>
        <mxCell id="zVcBrxB4Ki9ZOMjHsh-O-14" value="Admin activity" style="rounded=0;whiteSpace=wrap;html=1;" parent="zVcBrxB4Ki9ZOMjHsh-O-12" vertex="1">
          <mxGeometry x="15" y="34" width="110" height="42.5" as="geometry" />
        </mxCell>
        <mxCell id="zVcBrxB4Ki9ZOMjHsh-O-15" value="Order manager activity" style="rounded=0;whiteSpace=wrap;html=1;" parent="zVcBrxB4Ki9ZOMjHsh-O-12" vertex="1">
          <mxGeometry x="15" y="83.75" width="110" height="42.5" as="geometry" />
        </mxCell>
        <mxCell id="zVcBrxB4Ki9ZOMjHsh-O-16" value="Inventory manager activity" style="rounded=0;whiteSpace=wrap;html=1;" parent="zVcBrxB4Ki9ZOMjHsh-O-12" vertex="1">
          <mxGeometry x="15" y="137.5" width="110" height="42.5" as="geometry" />
        </mxCell>
        <mxCell id="zVcBrxB4Ki9ZOMjHsh-O-18" value="Order change log" style="rounded=0;whiteSpace=wrap;html=1;fillColor=#FFFFFF;strokeColor=#000000;" parent="1" vertex="1">
          <mxGeometry x="2125" y="878.75" width="140" height="32.5" as="geometry" />
        </mxCell>
        <mxCell id="zVcBrxB4Ki9ZOMjHsh-O-19" value="" style="endArrow=classic;html=1;rounded=0;exitX=1;exitY=0.5;exitDx=0;exitDy=0;fillColor=#f8cecc;strokeColor=#000000;entryX=0;entryY=0.5;entryDx=0;entryDy=0;" parent="1" target="zVcBrxB4Ki9ZOMjHsh-O-18" edge="1">
          <mxGeometry width="50" height="50" relative="1" as="geometry">
            <mxPoint x="1970" y="895.5" as="sourcePoint" />
            <mxPoint x="2139" y="894.5" as="targetPoint" />
          </mxGeometry>
        </mxCell>
        <mxCell id="zVcBrxB4Ki9ZOMjHsh-O-20" value="Click &quot;Hoạt động &lt;br&gt;order manager&quot;" style="edgeLabel;html=1;align=center;verticalAlign=middle;resizable=0;points=[];" parent="zVcBrxB4Ki9ZOMjHsh-O-19" vertex="1" connectable="0">
          <mxGeometry x="0.0371" y="-5" relative="1" as="geometry">
            <mxPoint y="-5" as="offset" />
          </mxGeometry>
        </mxCell>
        <mxCell id="zVcBrxB4Ki9ZOMjHsh-O-21" value="Order change log" style="rounded=0;whiteSpace=wrap;html=1;fillColor=#FFFFFF;strokeColor=#000000;" parent="1" vertex="1">
          <mxGeometry x="2125" y="940" width="140" height="32.5" as="geometry" />
        </mxCell>
        <mxCell id="zVcBrxB4Ki9ZOMjHsh-O-22" value="" style="endArrow=classic;html=1;rounded=0;exitX=1;exitY=0.5;exitDx=0;exitDy=0;fillColor=#f8cecc;strokeColor=#000000;entryX=0;entryY=0.5;entryDx=0;entryDy=0;" parent="1" edge="1">
          <mxGeometry width="50" height="50" relative="1" as="geometry">
            <mxPoint x="1970" y="956.38" as="sourcePoint" />
            <mxPoint x="2125" y="955.88" as="targetPoint" />
          </mxGeometry>
        </mxCell>
        <mxCell id="zVcBrxB4Ki9ZOMjHsh-O-23" value="Click &quot;Hoạt động &lt;br&gt;inventory manager&quot;" style="edgeLabel;html=1;align=center;verticalAlign=middle;resizable=0;points=[];" parent="zVcBrxB4Ki9ZOMjHsh-O-22" vertex="1" connectable="0">
          <mxGeometry x="0.0371" y="-5" relative="1" as="geometry">
            <mxPoint y="-5" as="offset" />
          </mxGeometry>
        </mxCell>
        <mxCell id="zVcBrxB4Ki9ZOMjHsh-O-25" value="Popup" style="rounded=0;whiteSpace=wrap;html=1;dashed=1;strokeWidth=0;fillColor=#e1d5e7;strokeColor=#9673a6;" parent="1" vertex="1">
          <mxGeometry x="2483" y="897.5" width="77" height="45" as="geometry" />
        </mxCell>
        <mxCell id="zVcBrxB4Ki9ZOMjHsh-O-26" value="" style="group;fillColor=#f8cecc;strokeColor=#b85450;" parent="1" vertex="1" connectable="0">
          <mxGeometry x="1830" y="1017.5" width="140" height="152.5" as="geometry" />
        </mxCell>
        <mxCell id="zVcBrxB4Ki9ZOMjHsh-O-27" value="" style="rounded=0;whiteSpace=wrap;html=1;fillColor=#e1d5e7;strokeColor=#9673a6;" parent="zVcBrxB4Ki9ZOMjHsh-O-26" vertex="1">
          <mxGeometry width="140" height="152.5" as="geometry" />
        </mxCell>
        <mxCell id="zVcBrxB4Ki9ZOMjHsh-O-28" value="Statistic" style="text;html=1;strokeColor=none;fillColor=none;align=center;verticalAlign=middle;whiteSpace=wrap;rounded=0;" parent="zVcBrxB4Ki9ZOMjHsh-O-26" vertex="1">
          <mxGeometry x="40" y="2.9047619047619047" width="60" height="21.785714285714285" as="geometry" />
        </mxCell>
        <mxCell id="zVcBrxB4Ki9ZOMjHsh-O-30" value="Best selling Product By Price" style="rounded=0;whiteSpace=wrap;html=1;" parent="zVcBrxB4Ki9ZOMjHsh-O-26" vertex="1">
          <mxGeometry x="15" y="92.5" width="110" height="42.5" as="geometry" />
        </mxCell>
        <mxCell id="zVcBrxB4Ki9ZOMjHsh-O-29" value="Best selling Product by Gender" style="rounded=0;whiteSpace=wrap;html=1;" parent="zVcBrxB4Ki9ZOMjHsh-O-26" vertex="1">
          <mxGeometry x="15" y="40" width="110" height="42.5" as="geometry" />
        </mxCell>
        <mxCell id="zVcBrxB4Ki9ZOMjHsh-O-32" value="Best selling Product by Gender page" style="rounded=0;whiteSpace=wrap;html=1;" parent="1" vertex="1">
          <mxGeometry x="2125" y="1058" width="150" height="42.5" as="geometry" />
        </mxCell>
        <mxCell id="zVcBrxB4Ki9ZOMjHsh-O-33" value="Best selling Product by Gender page" style="rounded=0;whiteSpace=wrap;html=1;" parent="1" vertex="1">
          <mxGeometry x="2125" y="1120" width="150" height="42.5" as="geometry" />
        </mxCell>
        <mxCell id="zVcBrxB4Ki9ZOMjHsh-O-34" value="" style="endArrow=classic;html=1;rounded=0;exitX=1;exitY=0.5;exitDx=0;exitDy=0;fillColor=#f8cecc;strokeColor=#000000;entryX=0;entryY=0.5;entryDx=0;entryDy=0;" parent="1" edge="1">
          <mxGeometry width="50" height="50" relative="1" as="geometry">
            <mxPoint x="1970" y="1080.5" as="sourcePoint" />
            <mxPoint x="2125" y="1080" as="targetPoint" />
          </mxGeometry>
        </mxCell>
        <mxCell id="zVcBrxB4Ki9ZOMjHsh-O-35" value="Click &quot;Best selling product&lt;br&gt;by Gender&quot;" style="edgeLabel;html=1;align=center;verticalAlign=middle;resizable=0;points=[];" parent="zVcBrxB4Ki9ZOMjHsh-O-34" vertex="1" connectable="0">
          <mxGeometry x="0.0371" y="-5" relative="1" as="geometry">
            <mxPoint y="-5" as="offset" />
          </mxGeometry>
        </mxCell>
        <mxCell id="zVcBrxB4Ki9ZOMjHsh-O-36" value="" style="endArrow=classic;html=1;rounded=0;exitX=1;exitY=0.5;exitDx=0;exitDy=0;fillColor=#f8cecc;strokeColor=#000000;entryX=0;entryY=0.5;entryDx=0;entryDy=0;" parent="1" edge="1">
          <mxGeometry width="50" height="50" relative="1" as="geometry">
            <mxPoint x="1970" y="1141.32" as="sourcePoint" />
            <mxPoint x="2125" y="1140.82" as="targetPoint" />
          </mxGeometry>
        </mxCell>
        <mxCell id="zVcBrxB4Ki9ZOMjHsh-O-37" value="Click &quot;Best selling Product&lt;br&gt;By Price&quot;" style="edgeLabel;html=1;align=center;verticalAlign=middle;resizable=0;points=[];" parent="zVcBrxB4Ki9ZOMjHsh-O-36" vertex="1" connectable="0">
          <mxGeometry x="0.0371" y="-5" relative="1" as="geometry">
            <mxPoint y="-5" as="offset" />
          </mxGeometry>
        </mxCell>
        <mxCell id="zVcBrxB4Ki9ZOMjHsh-O-47" value="Import List" style="rounded=0;whiteSpace=wrap;html=1;" parent="1" vertex="1">
          <mxGeometry x="1830" y="1200" width="140" height="57.5" as="geometry" />
        </mxCell>
        <mxCell id="zVcBrxB4Ki9ZOMjHsh-O-48" value="" style="endArrow=classic;html=1;rounded=0;entryX=0;entryY=0.552;entryDx=0;entryDy=0;entryPerimeter=0;" parent="1" edge="1">
          <mxGeometry width="50" height="50" relative="1" as="geometry">
            <mxPoint x="1630" y="500" as="sourcePoint" />
            <mxPoint x="1830" y="1229" as="targetPoint" />
            <Array as="points">
              <mxPoint x="1630" y="1227" />
            </Array>
          </mxGeometry>
        </mxCell>
        <mxCell id="zVcBrxB4Ki9ZOMjHsh-O-49" value="Click &quot;Quản lý import&quot; button" style="edgeLabel;html=1;align=center;verticalAlign=middle;resizable=0;points=[];" parent="zVcBrxB4Ki9ZOMjHsh-O-48" vertex="1" connectable="0">
          <mxGeometry x="0.2278" y="1" relative="1" as="geometry">
            <mxPoint x="99" y="159" as="offset" />
          </mxGeometry>
        </mxCell>
        <mxCell id="zVcBrxB4Ki9ZOMjHsh-O-50" value="Import Detail" style="rounded=0;whiteSpace=wrap;html=1;" parent="1" vertex="1">
          <mxGeometry x="2125" y="1200" width="140" height="57.5" as="geometry" />
        </mxCell>
        <mxCell id="zVcBrxB4Ki9ZOMjHsh-O-51" value="Update import" style="rounded=0;whiteSpace=wrap;html=1;" parent="1" vertex="1">
          <mxGeometry x="2125" y="1280" width="140" height="57.5" as="geometry" />
        </mxCell>
        <mxCell id="zVcBrxB4Ki9ZOMjHsh-O-52" value="" style="endArrow=classic;html=1;rounded=0;exitX=1;exitY=0.5;exitDx=0;exitDy=0;fillColor=#f8cecc;strokeColor=#000000;entryX=0;entryY=0.5;entryDx=0;entryDy=0;" parent="1" edge="1">
          <mxGeometry width="50" height="50" relative="1" as="geometry">
            <mxPoint x="1970" y="1228.8799999999999" as="sourcePoint" />
            <mxPoint x="2125" y="1228.3799999999999" as="targetPoint" />
          </mxGeometry>
        </mxCell>
        <mxCell id="zVcBrxB4Ki9ZOMjHsh-O-53" value="Click &quot;Chi tiết&quot; button" style="edgeLabel;html=1;align=center;verticalAlign=middle;resizable=0;points=[];" parent="zVcBrxB4Ki9ZOMjHsh-O-52" vertex="1" connectable="0">
          <mxGeometry x="0.0371" y="-5" relative="1" as="geometry">
            <mxPoint y="-5" as="offset" />
          </mxGeometry>
        </mxCell>
        <mxCell id="zVcBrxB4Ki9ZOMjHsh-O-55" value="" style="endArrow=classic;html=1;rounded=0;fillColor=#f8cecc;strokeColor=#000000;entryX=0;entryY=0.5;entryDx=0;entryDy=0;exitX=0.55;exitY=0.975;exitDx=0;exitDy=0;exitPerimeter=0;" parent="1" source="zVcBrxB4Ki9ZOMjHsh-O-47" target="zVcBrxB4Ki9ZOMjHsh-O-51" edge="1">
          <mxGeometry width="50" height="50" relative="1" as="geometry">
            <mxPoint x="1970" y="1230" as="sourcePoint" />
            <mxPoint x="2107.5" y="1308.3799999999999" as="targetPoint" />
            <Array as="points">
              <mxPoint x="1907" y="1310" />
            </Array>
          </mxGeometry>
        </mxCell>
        <mxCell id="zVcBrxB4Ki9ZOMjHsh-O-56" value="Click &quot;Chỉnh sửa&quot; button" style="edgeLabel;html=1;align=center;verticalAlign=middle;resizable=0;points=[];" parent="zVcBrxB4Ki9ZOMjHsh-O-55" vertex="1" connectable="0">
          <mxGeometry x="0.0371" y="-5" relative="1" as="geometry">
            <mxPoint y="-5" as="offset" />
          </mxGeometry>
        </mxCell>
      </root>
    </mxGraphModel>
  </diagram>
</mxfile>
